<svg height="2782" width="720" xmlns="http://www.w3.org/2000/svg">
<rect height="2782" fill="#555" width="720"></rect>
<text fill="#7f7" font-family="Courier New" font-size="12" xml:space="preserve">
<tspan x="10" y="26">└─┬ couchbase@2.3.2 </tspan>
<tspan x="10" y="42">  ├── bindings@1.2.1 </tspan>
<tspan x="10" y="58">  ├─┬ mocha@3.2.0 </tspan>
<tspan x="10" y="74">  │ ├── browser-stdout@1.3.0 </tspan>
<tspan x="10" y="90">  │ ├─┬ commander@2.9.0 </tspan>
<tspan x="10" y="106">  │ │ └── graceful-readlink@1.0.1 </tspan>
<tspan x="10" y="122">  │ ├─┬ debug@2.2.0 </tspan>
<tspan x="10" y="138">  │ │ └── ms@0.7.1 </tspan>
<tspan x="10" y="154">  │ ├── diff@1.4.0 </tspan>
<tspan x="10" y="170">  │ ├── escape-string-regexp@1.0.5 </tspan>
<tspan x="10" y="186">  │ ├─┬ glob@7.0.5 </tspan>
<tspan x="10" y="202">  │ │ ├── fs.realpath@1.0.0 </tspan>
<tspan x="10" y="218">  │ │ ├─┬ inflight@1.0.6 </tspan>
<tspan x="10" y="234">  │ │ │ └── wrappy@1.0.2 </tspan>
<tspan x="10" y="250">  │ │ ├── inherits@2.0.3 </tspan>
<tspan x="10" y="266">  │ │ ├─┬ minimatch@3.0.3 </tspan>
<tspan x="10" y="282">  │ │ │ └─┬ brace-expansion@1.1.6 </tspan>
<tspan x="10" y="298">  │ │ │   ├── balanced-match@0.4.2 </tspan>
<tspan x="10" y="314">  │ │ │   └── concat-map@0.0.1 </tspan>
<tspan x="10" y="330">  │ │ ├── once@1.4.0 </tspan>
<tspan x="10" y="346">  │ │ └── path-is-absolute@1.0.1 </tspan>
<tspan x="10" y="362">  │ ├── growl@1.9.2 </tspan>
<tspan x="10" y="378">  │ ├── json3@3.3.2 </tspan>
<tspan x="10" y="394">  │ ├─┬ lodash.create@3.1.1 </tspan>
<tspan x="10" y="410">  │ │ ├─┬ lodash._baseassign@3.2.0 </tspan>
<tspan x="10" y="426">  │ │ │ ├── lodash._basecopy@3.0.1 </tspan>
<tspan x="10" y="442">  │ │ │ └─┬ lodash.keys@3.1.2 </tspan>
<tspan x="10" y="458">  │ │ │   ├── lodash._getnative@3.9.1 </tspan>
<tspan x="10" y="474">  │ │ │   ├── lodash.isarguments@3.1.0 </tspan>
<tspan x="10" y="490">  │ │ │   └── lodash.isarray@3.0.4 </tspan>
<tspan x="10" y="506">  │ │ ├── lodash._basecreate@3.0.3 </tspan>
<tspan x="10" y="522">  │ │ └── lodash._isiterateecall@3.0.9 </tspan>
<tspan x="10" y="538">  │ ├─┬ mkdirp@0.5.1 </tspan>
<tspan x="10" y="554">  │ │ └── minimist@0.0.8 </tspan>
<tspan x="10" y="570">  │ └─┬ supports-color@3.1.2 </tspan>
<tspan x="10" y="586">  │   └── has-flag@1.0.0 </tspan>
<tspan x="10" y="602">  ├── nan@2.5.1 </tspan>
<tspan x="10" y="618">  ├─┬ prebuild@6.1.0 </tspan>
<tspan x="10" y="634">  │ ├─┬ async@2.3.0 </tspan>
<tspan x="10" y="650">  │ │ └── lodash@4.17.4 </tspan>
<tspan x="10" y="666">  │ ├─┬ execspawn@1.0.1 </tspan>
<tspan x="10" y="682">  │ │ └── util-extend@1.0.3 </tspan>
<tspan x="10" y="698">  │ ├─┬ ghreleases@1.0.5 </tspan>
<tspan x="10" y="714">  │ │ ├── after@0.8.2 </tspan>
<tspan x="10" y="730">  │ │ ├── ghrepos@2.0.0 </tspan>
<tspan x="10" y="746">  │ │ ├─┬ ghutils@3.2.1 </tspan>
<tspan x="10" y="762">  │ │ │ └─┬ jsonist@1.3.0 </tspan>
<tspan x="10" y="778">  │ │ │   └─┬ hyperquest@1.2.0 </tspan>
<tspan x="10" y="794">  │ │ │     ├─┬ duplexer2@0.0.2 </tspan>
<tspan x="10" y="810">  │ │ │     │ └─┬ readable-stream@1.1.14 </tspan>
<tspan x="10" y="826">  │ │ │     │   └── isarray@0.0.1 </tspan>
<tspan x="10" y="842">  │ │ │     └─┬ through2@0.6.5 </tspan>
<tspan x="10" y="858">  │ │ │       └─┬ readable-stream@1.0.34 </tspan>
<tspan x="10" y="874">  │ │ │         └── isarray@0.0.1 </tspan>
<tspan x="10" y="890">  │ │ ├── simple-mime@0.1.0 </tspan>
<tspan x="10" y="906">  │ │ └── url-template@2.0.8 </tspan>
<tspan x="10" y="922">  │ ├── github-from-package@0.0.0 </tspan>
<tspan x="10" y="938">  │ ├── minimist@1.2.0 </tspan>
<tspan x="10" y="954">  │ ├── node-abi@2.0.0 </tspan>
<tspan x="10" y="970">  │ ├─┬ node-gyp@3.6.0 </tspan>
<tspan x="10" y="986">  │ │ ├── fstream@1.0.11 </tspan>
<tspan x="10" y="1002">  │ │ ├── graceful-fs@4.1.11 </tspan>
<tspan x="10" y="1018">  │ │ ├─┬ nopt@3.0.6 </tspan>
<tspan x="10" y="1034">  │ │ │ └── abbrev@1.1.0 </tspan>
<tspan x="10" y="1050">  │ │ ├─┬ osenv@0.1.4 </tspan>
<tspan x="10" y="1066">  │ │ │ ├── os-homedir@1.0.2 </tspan>
<tspan x="10" y="1082">  │ │ │ └── os-tmpdir@1.0.2 </tspan>
<tspan x="10" y="1098">  │ │ ├── rimraf@2.6.1 </tspan>
<tspan x="10" y="1114">  │ │ ├── semver@5.3.0 </tspan>
<tspan x="10" y="1130">  │ │ ├─┬ tar@2.2.1 </tspan>
<tspan x="10" y="1146">  │ │ │ └── block-stream@0.0.9 </tspan>
<tspan x="10" y="1162">  │ │ └─┬ which@1.2.14 </tspan>
<tspan x="10" y="1178">  │ │   └── isexe@2.0.0 </tspan>
<tspan x="10" y="1194">  │ ├─┬ node-ninja@1.0.2 </tspan>
<tspan x="10" y="1210">  │ │ ├─┬ npmlog@2.0.4 </tspan>
<tspan x="10" y="1226">  │ │ │ ├── ansi@0.3.1 </tspan>
<tspan x="10" y="1242">  │ │ │ └─┬ gauge@1.2.7 </tspan>
<tspan x="10" y="1258">  │ │ │   ├── lodash.pad@4.5.1 </tspan>
<tspan x="10" y="1274">  │ │ │   ├── lodash.padend@4.6.1 </tspan>
<tspan x="10" y="1290">  │ │ │   └── lodash.padstart@4.6.1 </tspan>
<tspan x="10" y="1306">  │ │ └─┬ path-array@1.0.1 </tspan>
<tspan x="10" y="1322">  │ │   └─┬ array-index@1.0.0 </tspan>
<tspan x="10" y="1338">  │ │     └─┬ es6-symbol@3.1.1 </tspan>
<tspan x="10" y="1354">  │ │       ├── d@1.0.0 </tspan>
<tspan x="10" y="1370">  │ │       └─┬ es5-ext@0.10.15 </tspan>
<tspan x="10" y="1386">  │ │         └── es6-iterator@2.0.1 </tspan>
<tspan x="10" y="1402">  │ ├── noop-logger@0.1.1 </tspan>
<tspan x="10" y="1418">  │ ├─┬ npmlog@4.0.2 </tspan>
<tspan x="10" y="1434">  │ │ ├─┬ are-we-there-yet@1.1.2 </tspan>
<tspan x="10" y="1450">  │ │ │ └── delegates@1.0.0 </tspan>
<tspan x="10" y="1466">  │ │ ├── console-control-strings@1.1.0 </tspan>
<tspan x="10" y="1482">  │ │ ├─┬ gauge@2.7.3 </tspan>
<tspan x="10" y="1498">  │ │ │ ├── aproba@1.1.1 </tspan>
<tspan x="10" y="1514">  │ │ │ ├── has-unicode@2.0.1 </tspan>
<tspan x="10" y="1530">  │ │ │ ├── object-assign@4.1.1 </tspan>
<tspan x="10" y="1546">  │ │ │ ├── signal-exit@3.0.2 </tspan>
<tspan x="10" y="1562">  │ │ │ ├─┬ string-width@1.0.2 </tspan>
<tspan x="10" y="1578">  │ │ │ │ ├── code-point-at@1.1.0 </tspan>
<tspan x="10" y="1594">  │ │ │ │ └─┬ is-fullwidth-code-point@1.0.0 </tspan>
<tspan x="10" y="1610">  │ │ │ │   └── number-is-nan@1.0.1 </tspan>
<tspan x="10" y="1626">  │ │ │ ├─┬ strip-ansi@3.0.1 </tspan>
<tspan x="10" y="1642">  │ │ │ │ └── ansi-regex@2.1.1 </tspan>
<tspan x="10" y="1658">  │ │ │ └── wide-align@1.1.0 </tspan>
<tspan x="10" y="1674">  │ │ └── set-blocking@2.0.0 </tspan>
<tspan x="10" y="1690">  │ ├─┬ rc@1.2.1 </tspan>
<tspan x="10" y="1706">  │ │ ├── deep-extend@0.4.1 </tspan>
<tspan x="10" y="1722">  │ │ ├── ini@1.3.4 </tspan>
<tspan x="10" y="1738">  │ │ ├── minimist@1.2.0 </tspan>
<tspan x="10" y="1754">  │ │ └── strip-json-comments@2.0.1 </tspan>
<tspan x="10" y="1770">  │ ├─┬ tar-stream@1.5.2 </tspan>
<tspan x="10" y="1786">  │ │ ├── bl@1.0.3 </tspan>
<tspan x="10" y="1802">  │ │ ├── end-of-stream@1.4.0 </tspan>
<tspan x="10" y="1818">  │ │ └─┬ readable-stream@2.0.6 </tspan>
<tspan x="10" y="1834">  │ │   ├── core-util-is@1.0.2 </tspan>
<tspan x="10" y="1850">  │ │   ├── isarray@1.0.0 </tspan>
<tspan x="10" y="1866">  │ │   ├── process-nextick-args@1.0.7 </tspan>
<tspan x="10" y="1882">  │ │   ├── string_decoder@0.10.31 </tspan>
<tspan x="10" y="1898">  │ │   └── util-deprecate@1.0.2 </tspan>
<tspan x="10" y="1914">  │ └── xtend@4.0.1 </tspan>
<tspan x="10" y="1930">  └─┬ request@2.80.0 </tspan>
<tspan x="10" y="1946">    ├── aws-sign2@0.6.0 </tspan>
<tspan x="10" y="1962">    ├── aws4@1.6.0 </tspan>
<tspan x="10" y="1978">    ├── caseless@0.12.0 </tspan>
<tspan x="10" y="1994">    ├─┬ combined-stream@1.0.5 </tspan>
<tspan x="10" y="2010">    │ └── delayed-stream@1.0.0 </tspan>
<tspan x="10" y="2026">    ├── extend@3.0.0 </tspan>
<tspan x="10" y="2042">    ├── forever-agent@0.6.1 </tspan>
<tspan x="10" y="2058">    ├─┬ form-data@2.1.2 </tspan>
<tspan x="10" y="2074">    │ └── asynckit@0.4.0 </tspan>
<tspan x="10" y="2090">    ├─┬ har-validator@4.2.1 </tspan>
<tspan x="10" y="2106">    │ ├─┬ ajv@4.11.5 </tspan>
<tspan x="10" y="2122">    │ │ ├── co@4.6.0 </tspan>
<tspan x="10" y="2138">    │ │ └─┬ json-stable-stringify@1.0.1 </tspan>
<tspan x="10" y="2154">    │ │   └── jsonify@0.0.0 </tspan>
<tspan x="10" y="2170">    │ └── har-schema@1.0.5 </tspan>
<tspan x="10" y="2186">    ├─┬ hawk@3.1.3 </tspan>
<tspan x="10" y="2202">    │ ├── boom@2.10.1 </tspan>
<tspan x="10" y="2218">    │ ├── cryptiles@2.0.5 </tspan>
<tspan x="10" y="2234">    │ ├── hoek@2.16.3 </tspan>
<tspan x="10" y="2250">    │ └── sntp@1.0.9 </tspan>
<tspan x="10" y="2266">    ├─┬ http-signature@1.1.1 </tspan>
<tspan x="10" y="2282">    │ ├── assert-plus@0.2.0 </tspan>
<tspan x="10" y="2298">    │ ├─┬ jsprim@1.4.0 </tspan>
<tspan x="10" y="2314">    │ │ ├── assert-plus@1.0.0 </tspan>
<tspan x="10" y="2330">    │ │ ├── extsprintf@1.0.2 </tspan>
<tspan x="10" y="2346">    │ │ ├── json-schema@0.2.3 </tspan>
<tspan x="10" y="2362">    │ │ └── verror@1.3.6 </tspan>
<tspan x="10" y="2378">    │ └─┬ sshpk@1.11.0 </tspan>
<tspan x="10" y="2394">    │   ├── asn1@0.2.3 </tspan>
<tspan x="10" y="2410">    │   ├── assert-plus@1.0.0 </tspan>
<tspan x="10" y="2426">    │   ├── bcrypt-pbkdf@1.0.1 </tspan>
<tspan x="10" y="2442">    │   ├─┬ dashdash@1.14.1 </tspan>
<tspan x="10" y="2458">    │   │ └── assert-plus@1.0.0 </tspan>
<tspan x="10" y="2474">    │   ├── ecc-jsbn@0.1.1 </tspan>
<tspan x="10" y="2490">    │   ├─┬ getpass@0.1.6 </tspan>
<tspan x="10" y="2506">    │   │ └── assert-plus@1.0.0 </tspan>
<tspan x="10" y="2522">    │   ├── jodid25519@1.0.2 </tspan>
<tspan x="10" y="2538">    │   ├── jsbn@0.1.1 </tspan>
<tspan x="10" y="2554">    │   └── tweetnacl@0.14.5 </tspan>
<tspan x="10" y="2570">    ├── is-typedarray@1.0.0 </tspan>
<tspan x="10" y="2586">    ├── isstream@0.1.2 </tspan>
<tspan x="10" y="2602">    ├── json-stringify-safe@5.0.1 </tspan>
<tspan x="10" y="2618">    ├─┬ mime-types@2.1.15 </tspan>
<tspan x="10" y="2634">    │ └── mime-db@1.27.0 </tspan>
<tspan x="10" y="2650">    ├── oauth-sign@0.8.2 </tspan>
<tspan x="10" y="2666">    ├── performance-now@0.2.0 </tspan>
<tspan x="10" y="2682">    ├── qs@6.3.2 </tspan>
<tspan x="10" y="2698">    ├── stringstream@0.0.5 </tspan>
<tspan x="10" y="2714">    ├─┬ tough-cookie@2.3.2 </tspan>
<tspan x="10" y="2730">    │ └── punycode@1.4.1 </tspan>
<tspan x="10" y="2746">    ├── tunnel-agent@0.4.3 </tspan>
<tspan x="10" y="2762">    └── uuid@3.0.1</tspan>
</text>
</svg>
